#Comment line ignore any data following # character 
#Hierarchical Translation and Rotation (.htr) file 
[Header]	
#Header keywords are followed by a single value 
FileType HTR		#Single word string
DataType HTRS		#Translation followed by rotation and scale data
FileVersion 1		#integer
NumSegments 84		#integer
NumFrames 2		#integer
DataFrameRate 30		#integer, data frame rate in this file
EulerRotationOrder ZYX
CalibrationUnits mm
RotationUnits Degrees
GlobalAxisofGravity Y
BoneLengthAxis Y
ScaleFactor 1.00
[SegmentNames&Hierarchy]
#CHILD	PARENT
MASTER GLOBAL
root MASTER
chest root
L_mid_tent01 root
R_mid_tent01 root
spine01 root
Bip01_Neck chest
L_humerus chest
R_humerus chest
weapon_bone chest
Bip01_Head Bip01_Neck
eye_left_bone Bip01_Head
eye_right_bone Bip01_Head
L_forearm L_humerus
L_front_hand L_forearm
L_weapon_bone L_forearm
L_front_hand01_01 L_front_hand
L_front_hand02_01 L_front_hand
L_front_hand03_01 L_front_hand
L_front_hand01_02 L_front_hand01_01
L_front_hand02_02 L_front_hand02_01
L_front_hand03_02 L_front_hand03_01
R_forearm R_humerus
R_front_hand R_forearm
R_weapon_bone R_forearm
R_front_hand01_01 R_front_hand
R_front_hand02_01 R_front_hand
R_front_hand03_01 R_front_hand
R_front_hand01_02 R_front_hand01_01
R_front_hand02_02 R_front_hand02_01
R_front_hand03_02 R_front_hand03_01
null_rope01_connect L_mid_tent01
Rope1_Seg01 null_rope01_connect
Rope1_Seg02 Rope1_Seg01
Rope1_Seg03 Rope1_Seg02
Rope1_Seg04 Rope1_Seg03
Rope1_Seg05 Rope1_Seg04
Rope1_Seg06 Rope1_Seg05
Rope1_Seg07 Rope1_Seg06
Rope1_Seg09 Rope1_Seg07
L_mid_hand01 Rope1_Seg09
L_mid_hand02 Rope1_Seg09
L_mid_hand03 Rope1_Seg09
null_rope02_connect R_mid_tent01
Rope2_Seg01 null_rope02_connect
Rope2_Seg02 Rope2_Seg01
Rope2_Seg03 Rope2_Seg02
Rope2_Seg04 Rope2_Seg03
Rope2_Seg05 Rope2_Seg04
Rope2_Seg06 Rope2_Seg05
Rope2_Seg07 Rope2_Seg06
Rope2_Seg09 Rope2_Seg07
R_mid_hand01 Rope2_Seg09
R_mid_hand02 Rope2_Seg09
R_mid_hand03 Rope2_Seg09
spine02 spine01
spine03 spine02
pelvis spine03
null_rope03_connect pelvis
null_rope04_connect pelvis
Rope3_Seg01 null_rope03_connect
Rope3_Seg02 Rope3_Seg01
Rope3_Seg03 Rope3_Seg02
Rope3_Seg04 Rope3_Seg03
Rope3_Seg05 Rope3_Seg04
Rope3_Seg06 Rope3_Seg05
Rope3_Seg07 Rope3_Seg06
Rope3_Seg08 Rope3_Seg07
Rope3_Seg09 Rope3_Seg08
R_rear_hand01 Rope3_Seg09
R_rear_hand02 Rope3_Seg09
R_rear_hand03 Rope3_Seg09
Rope4_Seg01 null_rope04_connect
Rope4_Seg02 Rope4_Seg01
Rope4_Seg03 Rope4_Seg02
Rope4_Seg04 Rope4_Seg03
Rope4_Seg05 Rope4_Seg04
Rope4_Seg06 Rope4_Seg05
Rope4_Seg07 Rope4_Seg06
Rope4_Seg08 Rope4_Seg07
Rope4_Seg09 Rope4_Seg08
L_rear_hand01 Rope4_Seg09
L_rear_hand02 Rope4_Seg09
L_rear_hand03 Rope4_Seg09
[BasePosition]
#SegmentName Tx, Ty, Tz, Rx, Ry, Rz, BoneLength
MASTER 0.000000 0.000000 0.000000 -90.000000 0.000000 0.000000 10.000000 
root 0.000000 0.000000 0.000000 0.000000 0.000000 0.000000 10.000000 
chest 0.000000 0.000000 0.000000 0.000000 0.000000 0.000000 10.000000 
L_mid_tent01 0.000000 0.000000 0.000000 0.000000 0.000000 0.000000 10.000000 
R_mid_tent01 0.000000 0.000000 0.000000 0.000000 0.000000 0.000000 10.000000 
spine01 0.000000 0.000000 0.000000 0.000000 0.000000 0.000000 10.000000 
Bip01_Neck 0.000000 0.000000 0.000000 0.000000 0.000000 0.000000 10.000000 
L_humerus 0.000000 0.000000 0.000000 0.000000 0.000000 0.000000 10.000000 
R_humerus 0.000000 0.000000 0.000000 0.000000 0.000000 0.000000 10.000000 
weapon_bone 0.000000 0.000000 0.000000 0.000000 0.000000 0.000000 10.000000 
Bip01_Head 0.000000 0.000000 0.000000 0.000000 0.000000 0.000000 10.000000 
eye_left_bone 0.000000 0.000000 0.000000 0.000000 0.000000 0.000000 10.000000 
eye_right_bone 0.000000 0.000000 0.000000 0.000000 0.000000 0.000000 10.000000 
L_forearm 0.000000 0.000000 0.000000 0.000000 0.000000 0.000000 10.000000 
L_front_hand 0.000000 0.000000 0.000000 0.000000 0.000000 0.000000 10.000000 
L_weapon_bone 0.000000 0.000000 0.000000 0.000000 0.000000 0.000000 10.000000 
L_front_hand01_01 0.000000 0.000000 0.000000 0.000000 0.000000 0.000000 10.000000 
L_front_hand02_01 0.000000 0.000000 0.000000 0.000000 0.000000 0.000000 10.000000 
L_front_hand03_01 0.000000 0.000000 0.000000 0.000000 0.000000 0.000000 10.000000 
L_front_hand01_02 0.000000 0.000000 0.000000 0.000000 0.000000 0.000000 10.000000 
L_front_hand02_02 0.000000 0.000000 0.000000 0.000000 0.000000 0.000000 10.000000 
L_front_hand03_02 0.000000 0.000000 0.000000 0.000000 0.000000 0.000000 10.000000 
R_forearm 0.000000 0.000000 0.000000 0.000000 0.000000 0.000000 10.000000 
R_front_hand 0.000000 0.000000 0.000000 0.000000 0.000000 0.000000 10.000000 
R_weapon_bone 0.000000 0.000000 0.000000 0.000000 0.000000 0.000000 10.000000 
R_front_hand01_01 0.000000 0.000000 0.000000 0.000000 0.000000 0.000000 10.000000 
R_front_hand02_01 0.000000 0.000000 0.000000 0.000000 0.000000 0.000000 10.000000 
R_front_hand03_01 0.000000 0.000000 0.000000 0.000000 0.000000 0.000000 10.000000 
R_front_hand01_02 0.000000 0.000000 0.000000 0.000000 0.000000 0.000000 10.000000 
R_front_hand02_02 0.000000 0.000000 0.000000 0.000000 0.000000 0.000000 10.000000 
R_front_hand03_02 0.000000 0.000000 0.000000 0.000000 0.000000 0.000000 10.000000 
null_rope01_connect 0.000000 0.000000 0.000000 0.000000 0.000000 0.000000 10.000000 
Rope1_Seg01 0.000000 0.000000 0.000000 0.000000 0.000000 0.000000 10.000000 
Rope1_Seg02 0.000000 0.000000 0.000000 0.000000 0.000000 0.000000 10.000000 
Rope1_Seg03 0.000000 0.000000 0.000000 0.000000 0.000000 0.000000 10.000000 
Rope1_Seg04 0.000000 0.000000 0.000000 0.000000 0.000000 0.000000 10.000000 
Rope1_Seg05 0.000000 0.000000 0.000000 0.000000 0.000000 0.000000 10.000000 
Rope1_Seg06 0.000000 0.000000 0.000000 0.000000 0.000000 0.000000 10.000000 
Rope1_Seg07 0.000000 0.000000 0.000000 0.000000 0.000000 0.000000 10.000000 
Rope1_Seg09 0.000000 0.000000 0.000000 0.000000 0.000000 0.000000 10.000000 
L_mid_hand01 0.000000 0.000000 0.000000 0.000000 0.000000 0.000000 10.000000 
L_mid_hand02 0.000000 0.000000 0.000000 0.000000 0.000000 0.000000 10.000000 
L_mid_hand03 0.000000 0.000000 0.000000 0.000000 0.000000 0.000000 10.000000 
null_rope02_connect 0.000000 0.000000 0.000000 0.000000 0.000000 0.000000 10.000000 
Rope2_Seg01 0.000000 0.000000 0.000000 0.000000 0.000000 0.000000 10.000000 
Rope2_Seg02 0.000000 0.000000 0.000000 0.000000 0.000000 0.000000 10.000000 
Rope2_Seg03 0.000000 0.000000 0.000000 0.000000 0.000000 0.000000 10.000000 
Rope2_Seg04 0.000000 0.000000 0.000000 0.000000 0.000000 0.000000 10.000000 
Rope2_Seg05 0.000000 0.000000 0.000000 0.000000 0.000000 0.000000 10.000000 
Rope2_Seg06 0.000000 0.000000 0.000000 0.000000 0.000000 0.000000 10.000000 
Rope2_Seg07 0.000000 0.000000 0.000000 0.000000 0.000000 0.000000 10.000000 
Rope2_Seg09 0.000000 0.000000 0.000000 0.000000 0.000000 0.000000 10.000000 
R_mid_hand01 0.000000 0.000000 0.000000 0.000000 0.000000 0.000000 10.000000 
R_mid_hand02 0.000000 0.000000 0.000000 0.000000 0.000000 0.000000 10.000000 
R_mid_hand03 0.000000 0.000000 0.000000 0.000000 0.000000 0.000000 10.000000 
spine02 0.000000 0.000000 0.000000 0.000000 0.000000 0.000000 10.000000 
spine03 0.000000 0.000000 0.000000 0.000000 0.000000 0.000000 10.000000 
pelvis 0.000000 0.000000 0.000000 0.000000 0.000000 0.000000 10.000000 
null_rope03_connect 0.000000 0.000000 0.000000 0.000000 0.000000 0.000000 10.000000 
null_rope04_connect 0.000000 0.000000 0.000000 0.000000 0.000000 0.000000 10.000000 
Rope3_Seg01 0.000000 0.000000 0.000000 0.000000 0.000000 0.000000 10.000000 
Rope3_Seg02 0.000000 0.000000 0.000000 0.000000 0.000000 0.000000 10.000000 
Rope3_Seg03 0.000000 0.000000 0.000000 0.000000 0.000000 0.000000 10.000000 
Rope3_Seg04 0.000000 0.000000 0.000000 0.000000 0.000000 0.000000 10.000000 
Rope3_Seg05 0.000000 0.000000 0.000000 0.000000 0.000000 0.000000 10.000000 
Rope3_Seg06 0.000000 0.000000 0.000000 0.000000 0.000000 0.000000 10.000000 
Rope3_Seg07 0.000000 0.000000 0.000000 0.000000 0.000000 0.000000 10.000000 
Rope3_Seg08 0.000000 0.000000 0.000000 0.000000 0.000000 0.000000 10.000000 
Rope3_Seg09 0.000000 0.000000 0.000000 0.000000 0.000000 0.000000 10.000000 
R_rear_hand01 0.000000 0.000000 0.000000 0.000000 0.000000 0.000000 10.000000 
R_rear_hand02 0.000000 0.000000 0.000000 0.000000 0.000000 0.000000 10.000000 
R_rear_hand03 0.000000 0.000000 0.000000 0.000000 0.000000 0.000000 10.000000 
Rope4_Seg01 0.000000 0.000000 0.000000 0.000000 0.000000 0.000000 10.000000 
Rope4_Seg02 0.000000 0.000000 0.000000 0.000000 0.000000 0.000000 10.000000 
Rope4_Seg03 0.000000 0.000000 0.000000 0.000000 0.000000 0.000000 10.000000 
Rope4_Seg04 0.000000 0.000000 0.000000 0.000000 0.000000 0.000000 10.000000 
Rope4_Seg05 0.000000 0.000000 0.000000 0.000000 0.000000 0.000000 10.000000 
Rope4_Seg06 0.000000 0.000000 0.000000 0.000000 0.000000 0.000000 10.000000 
Rope4_Seg07 0.000000 0.000000 0.000000 0.000000 0.000000 0.000000 10.000000 
Rope4_Seg08 0.000000 0.000000 0.000000 0.000000 0.000000 0.000000 10.000000 
Rope4_Seg09 0.000000 0.000000 0.000000 0.000000 0.000000 0.000000 10.000000 
L_rear_hand01 0.000000 0.000000 0.000000 0.000000 0.000000 0.000000 10.000000 
L_rear_hand02 0.000000 0.000000 0.000000 0.000000 0.000000 0.000000 10.000000 
L_rear_hand03 0.000000 0.000000 0.000000 0.000000 0.000000 0.000000 10.000000 
#Beginning of Data. Separated by tabs
#Fr	Tx	Ty	Tz	Rx	Ry	Rz	SF
[MASTER]
26 0.000005 62.822109 0.000000 0.001660 0.001660 0.001660 62.822113
27 0.000005 62.822109 0.000000 0.001660 0.001660 0.001660 62.822113
[root]
26 -16.502295 -62.822117 1500.000000 -93.690781 -30.056610 -54.578270 1501.405640
27 -16.502295 -62.822117 1500.000000 -93.492653 -29.292007 -57.832245 1501.405640
[chest]
26 -84.512650 -34.090519 0.000000 5.220921 -17.950104 175.202835 91.129311
27 -84.512650 -34.090519 0.000000 4.269723 -16.394176 175.957397 91.129311
[L_mid_tent01]
26 27.299500 22.177528 -249.917999 -101.318207 73.354263 36.260303 252.380875
27 27.299496 22.177532 -249.917999 -95.167084 71.726028 39.579990 252.380875
[R_mid_tent01]
26 23.228794 24.509907 226.238495 137.775894 5.480772 109.624474 228.744751
27 23.228794 24.509907 226.238495 138.800720 1.851256 106.632820 228.744751
[spine01]
26 -0.361383 -0.195265 0.000000 -0.159825 0.356594 11.981723 0.410763
27 -0.361383 -0.195265 0.000000 -0.083591 0.363820 12.265440 0.410763
[Bip01_Neck]
26 165.484543 71.581718 0.000119 175.896118 1.177290 24.871183 180.302734
27 165.484543 71.581718 0.000119 175.896118 1.177290 24.871183 180.302734
[L_humerus]
26 -13.983130 -135.272980 -120.471481 57.830215 42.942017 156.467056 181.680161
27 -13.983130 -135.272980 -120.471481 56.084278 43.842304 154.336517 181.680161
[R_humerus]
26 -13.983309 -135.273102 125.287651 97.813744 -5.422003 1.698772 184.909012
27 -13.983309 -135.273102 125.287651 100.106964 -7.741227 -3.776612 184.909012
[weapon_bone]
26 235.964890 -300.705902 0.000000 0.000000 -89.951546 -128.212341 382.234833
27 235.964890 -300.705902 0.000000 0.000000 -89.951546 -128.212341 382.234833
[Bip01_Head]
26 261.355835 108.959557 -2.864214 15.399286 5.842792 -62.453815 283.173553
27 261.355835 108.959572 -2.864213 9.067231 5.842476 -62.453815 283.173553
[eye_left_bone]
26 -24.626970 125.451866 -64.772606 0.000000 -90.000000 -99.840431 143.318359
27 -24.626970 125.451866 -64.772606 0.000000 -90.000000 -99.840431 143.318359
[eye_right_bone]
26 -24.626970 125.451866 64.327362 0.000000 -89.960434 80.159386 143.117676
27 -24.626970 125.451866 64.327362 0.000000 -89.960434 80.159386 143.117676
[L_forearm]
26 322.776093 0.000000 -0.000119 0.000183 0.002340 -81.045212 322.776093
27 322.776093 0.000000 -0.000119 0.000183 0.002340 -81.045212 322.776093
[L_front_hand]
26 241.149185 -0.042021 -3.300071 -178.663147 -1.834274 -27.422415 241.171753
27 241.149185 -0.042021 -3.300071 -178.663147 -1.834274 -27.422415 241.171753
[L_weapon_bone]
26 156.183838 0.000000 0.000000 0.001660 0.001660 0.001660 156.183838
27 156.183838 0.000000 0.000000 0.001660 0.001660 0.001660 156.183838
[L_front_hand01_01]
26 86.095154 20.947098 -0.655860 -0.363570 -0.473241 75.385529 88.609184
27 86.095154 20.947098 -0.655860 -0.363570 -0.473241 75.385529 88.609184
[L_front_hand02_01]
26 86.935165 -11.437475 24.513514 154.403519 -59.888931 -61.371983 91.046425
27 86.935165 -11.437475 24.513514 154.403519 -59.888931 -61.371990 91.046425
[L_front_hand03_01]
26 86.637497 -14.123976 -20.424902 -153.913849 58.118122 -62.702866 90.126129
27 86.637497 -14.123976 -20.424902 -153.913849 58.118122 -62.702866 90.126129
[L_front_hand01_02]
26 71.020905 -0.000179 0.000030 0.000334 -0.002323 -106.379684 71.020905
27 71.020905 -0.000179 0.000030 0.000334 -0.002323 -106.379684 71.020905
[L_front_hand02_02]
26 71.020927 -0.000119 0.000060 0.000334 -0.002323 -106.379684 71.020927
27 71.020927 -0.000119 0.000060 0.000334 -0.002323 -106.379684 71.020927
[L_front_hand03_02]
26 71.020905 -0.000060 0.000060 0.000334 -0.002323 -106.379684 71.020905
27 71.020905 -0.000060 0.000060 0.000334 -0.002323 -106.379684 71.020905
[R_forearm]
26 322.776428 -0.000060 0.000030 0.073883 -0.200950 -20.860752 322.776428
27 322.776428 -0.000060 0.000030 0.101402 -0.186524 -29.196280 322.776428
[R_front_hand]
26 238.847015 -0.006795 2.210259 -0.329808 1.690299 0.202211 238.857239
27 238.847015 -0.006795 2.210259 -0.440448 1.664898 -3.570243 238.857239
[R_weapon_bone]
26 155.664093 0.002503 -0.000030 0.002497 -0.002704 -31.830994 155.664078
27 155.664093 0.002503 -0.000030 0.002497 -0.002704 -31.830994 155.664078
[R_front_hand01_01]
26 87.624611 14.231146 22.918642 -154.633499 -59.950615 61.746044 91.683487
27 87.624611 14.231146 22.918642 -154.633499 -59.950619 61.746044 91.683487
[R_front_hand02_01]
26 89.356956 14.367283 -19.491137 154.595840 58.306175 63.741730 92.579636
27 89.356956 14.367283 -19.491137 154.595825 58.306175 63.741730 92.579636
[R_front_hand03_01]
26 87.286232 -22.307278 -0.143439 0.162155 -0.423168 -75.767921 90.091743
27 87.286232 -22.307278 -0.143439 0.162155 -0.423168 -75.767921 90.091743
[R_front_hand01_02]
26 71.020905 0.000060 0.000119 0.002323 -0.000334 106.381714 71.020905
27 71.020905 0.000060 0.000119 0.002323 -0.000334 106.381714 71.020905
[R_front_hand02_02]
26 71.020844 -0.000030 -0.000119 0.002323 -0.000334 106.381714 71.020836
27 71.020844 -0.000030 -0.000119 0.002323 -0.000334 106.381714 71.020836
[R_front_hand03_02]
26 71.020905 0.000000 0.000030 0.002323 -0.000334 106.381714 71.020905
27 71.020905 0.000000 0.000030 0.002323 -0.000334 106.381714 71.020905
[null_rope01_connect]
26 328.732483 0.000000 -0.000238 169.106232 14.629835 -131.488632 328.732483
27 328.732483 0.000000 -0.000238 169.116241 11.588131 -132.634216 328.732483
[Rope1_Seg01]
26 0.000000 0.000000 0.000000 29.965761 -32.516205 -102.824760 0.000000
27 0.000000 0.000000 0.000000 19.754723 -28.351433 -93.454308 0.000000
[Rope1_Seg02]
26 139.999863 -0.000179 0.000000 11.626437 0.746139 -20.782776 139.999863
27 139.999863 -0.000179 0.000000 4.316556 3.499887 -12.568193 139.999863
[Rope1_Seg03]
26 139.999924 0.000060 -0.000060 49.737118 -3.396444 -37.195759 139.999924
27 139.999924 0.000060 -0.000060 23.072968 5.509521 -26.279387 139.999924
[Rope1_Seg04]
26 139.999924 -0.000060 -0.000119 33.473953 -20.009493 -13.996220 139.999924
27 139.999924 -0.000060 -0.000119 71.851776 -4.967013 -30.409058 139.999924
[Rope1_Seg05]
26 139.999832 0.000119 -0.000060 4.258609 -36.219032 15.713248 139.999832
27 139.999832 0.000119 -0.000060 19.364555 -28.551870 3.805358 139.999832
[Rope1_Seg06]
26 139.999954 0.000119 -0.000060 -7.418785 -31.973646 21.311972 139.999954
27 139.999954 0.000119 -0.000060 -6.920641 -39.249775 30.047785 139.999954
[Rope1_Seg07]
26 139.999985 0.000060 0.000000 -3.295537 -11.118670 5.653504 139.999985
27 139.999985 0.000060 0.000000 -3.173911 -16.577148 11.114079 139.999985
[Rope1_Seg09]
26 121.602913 0.000119 -0.000089 -89.793175 -1.359789 0.847147 121.602913
27 121.602913 0.000119 -0.000089 -89.793175 -1.359789 0.847147 121.602913
[L_mid_hand01]
26 103.859421 1.038730 8.195221 105.620987 -22.988335 -6.761933 104.187431
27 103.859421 1.038730 8.195221 105.620987 -22.988335 -6.761933 104.187431
[L_mid_hand02]
26 105.572853 -4.139662 -10.864139 -139.491974 20.327143 -21.528740 106.211075
27 105.572853 -4.139662 -10.864139 -139.491974 20.327143 -21.528740 106.211075
[L_mid_hand03]
26 104.641464 17.579376 -3.913581 -17.354424 7.254999 25.905664 106.179977
27 104.641464 17.579376 -3.913581 -17.354420 7.254997 25.905659 106.179977
[null_rope02_connect]
26 328.732849 0.000179 -0.000119 -76.122337 14.238550 91.453171 328.732849
27 328.732849 0.000179 -0.000119 -77.316658 18.455200 87.641792 328.732849
[Rope2_Seg01]
26 -0.000050 0.000147 0.000047 71.669334 58.978596 -171.506622 0.000162
27 -0.000049 0.000147 0.000042 80.101479 60.430099 -161.721436 0.000161
[Rope2_Seg02]
26 139.999741 -0.000060 -0.000119 -0.717647 -13.240778 -1.782229 139.999756
27 139.999741 -0.000060 -0.000119 -0.356267 -15.019034 -0.614821 139.999756
[Rope2_Seg03]
26 140.000107 0.000030 0.000000 -1.579566 -7.649198 -3.571593 140.000107
27 140.000107 0.000030 0.000000 -1.199037 -8.047466 -2.670990 140.000107
[Rope2_Seg04]
26 139.999802 0.000000 -0.000060 -1.045516 -5.515437 -0.566931 139.999802
27 139.999802 0.000000 -0.000060 -0.957687 -6.569573 0.056635 139.999802
[Rope2_Seg05]
26 139.999985 -0.000060 0.000119 0.976292 -5.530086 5.165421 139.999985
27 139.999985 -0.000060 0.000119 0.242397 -8.477914 5.187760 139.999985
[Rope2_Seg06]
26 139.999893 -0.000030 -0.000119 1.807167 -4.290619 5.232101 139.999893
27 139.999893 -0.000030 -0.000119 0.937091 -6.864176 4.906701 139.999893
[Rope2_Seg07]
26 139.999893 0.000060 -0.000060 0.865382 -2.594841 2.500334 139.999893
27 139.999893 0.000060 -0.000060 0.410373 -3.915581 2.377985 139.999893
[Rope2_Seg09]
26 121.338966 0.000089 -0.000060 33.793236 -1.359788 -0.847141 121.338966
27 121.338966 0.000089 -0.000060 33.793236 -1.359788 -0.847141 121.338966
[R_mid_hand01]
26 104.680779 11.144459 -10.335981 -44.070736 19.764444 21.986286 105.778534
27 104.680779 11.144459 -10.335981 -44.070728 19.764444 21.986286 105.778534
[R_mid_hand02]
26 104.070427 2.443552 8.231699 74.148849 -24.768806 7.320621 104.424065
27 104.070427 2.443552 8.231699 74.148849 -24.768806 7.320621 104.424065
[R_mid_hand03]
26 106.028137 -11.221827 -5.996406 -166.566208 8.416404 -28.789036 106.788818
27 106.028137 -11.221827 -5.996406 -166.566208 8.416404 -28.789036 106.788818
[spine02]
26 129.756927 0.001550 0.000119 -0.076736 -3.962134 -6.754501 129.756927
27 129.756927 0.001550 0.000119 -0.090682 -3.969834 -6.553278 129.756927
[spine03]
26 79.115646 -0.000197 0.000000 1.907030 -2.965995 23.921797 79.115646
27 79.115646 -0.000180 0.000000 1.907030 -2.965994 23.921791 79.115646
[pelvis]
26 169.435242 0.051022 0.000000 78.917534 3.492953 -4.302507 169.435257
27 169.435242 0.051022 0.000000 60.685726 3.531532 -4.382886 169.435257
[null_rope03_connect]
26 -1.257226 -2.466202 137.391083 12.247454 -8.227260 53.205566 137.418976
27 -1.257226 -2.466202 137.391083 21.648813 -24.215347 53.093842 137.418976
[null_rope04_connect]
26 -1.259640 -2.480268 -137.844437 12.247454 -8.227260 53.205566 137.872513
27 -1.259640 -2.480268 -137.844437 21.648813 -24.215347 53.093842 137.872513
[Rope3_Seg01]
26 0.000000 0.000000 0.000000 -148.744354 -43.560261 -57.165844 0.000000
27 0.000000 0.000000 0.000000 -155.662506 -38.338844 -42.771080 0.000000
[Rope3_Seg02]
26 139.999924 -0.000119 0.000060 -15.934060 34.384762 -12.655961 139.999924
27 139.999924 -0.000119 0.000060 -31.951855 28.163683 -24.396906 139.999924
[Rope3_Seg03]
26 139.999924 -0.000119 0.000119 -0.657990 26.368753 2.606077 139.999924
27 139.999924 -0.000119 0.000119 -9.793077 28.737793 -0.443036 139.999924
[Rope3_Seg04]
26 139.999924 0.000119 0.000000 1.444438 14.322338 -2.763264 139.999924
27 139.999924 0.000119 0.000000 -3.005176 15.000793 -2.824406 139.999924
[Rope3_Seg05]
26 139.999924 -0.000238 0.000060 1.769339 15.890840 -12.080840 139.999924
27 139.999924 -0.000238 0.000060 -4.208395 16.871681 -11.576105 139.999924
[Rope3_Seg06]
26 139.999893 -0.000119 -0.000060 1.260197 12.006969 -11.328337 139.999893
27 139.999893 -0.000119 -0.000060 -2.534626 13.223275 -8.810798 139.999893
[Rope3_Seg07]
26 139.999771 0.000060 -0.000119 0.948075 5.741902 -4.844912 139.999771
27 139.999771 0.000060 -0.000119 -0.498298 6.744820 -3.352497 139.999771
[Rope3_Seg08]
26 139.999985 -0.000060 0.000000 0.793575 3.212629 -2.821325 139.999985
27 139.999985 -0.000060 0.000000 0.076972 3.851916 -1.881198 139.999985
[Rope3_Seg09]
26 90.185997 -0.000179 -0.000060 89.793228 -1.359877 -0.847183 90.185997
27 90.185997 -0.000179 -0.000060 89.793228 -1.359877 -0.847183 90.185997
[R_rear_hand01]
26 103.366196 -6.073594 -10.757982 -160.090088 14.865479 -24.717995 104.101845
27 103.366196 -6.073594 -10.757982 -160.090088 14.865479 -24.717995 104.101845
[R_rear_hand02]
26 100.509819 12.039542 -7.992327 -35.711582 16.148796 24.170401 101.543350
27 100.509819 12.039542 -7.992327 -35.711582 16.148796 24.170401 101.543350
[R_rear_hand03]
26 101.539970 5.215704 5.435467 83.699936 -25.497597 6.583542 101.819031
27 101.539970 5.215704 5.435467 83.699936 -25.497597 6.583542 101.819031
[Rope4_Seg01]
26 0.000001 -0.000050 -0.000047 77.630447 40.230595 -61.506454 0.000068
27 0.000002 -0.000049 -0.000042 62.955425 36.492275 -78.951996 0.000065
[Rope4_Seg02]
26 139.999985 0.000060 0.000119 10.265412 8.557388 -8.524958 139.999985
27 139.999985 0.000060 0.000119 5.716506 7.485623 -8.470888 139.999985
[Rope4_Seg03]
26 139.999924 0.000000 -0.000238 20.532221 13.521424 -19.816565 139.999924
27 139.999924 0.000000 -0.000238 11.330894 12.647766 -18.192150 139.999924
[Rope4_Seg04]
26 139.999985 0.000000 0.000119 22.349243 14.220941 -28.361431 139.999985
27 139.999985 0.000000 0.000119 15.621439 18.622358 -26.754896 139.999985
[Rope4_Seg05]
26 139.999802 -0.000060 -0.000119 7.871620 -9.567005 -19.824986 139.999802
27 139.999802 -0.000060 -0.000119 8.333038 -2.024184 -21.041958 139.999802
[Rope4_Seg06]
26 139.999924 0.000000 0.000060 7.212565 -33.599907 -23.710825 139.999924
27 139.999924 0.000000 0.000060 6.977250 -25.851776 -29.252174 139.999924
[Rope4_Seg07]
26 139.999802 0.000000 0.000000 0.719729 -20.452278 -13.511664 139.999802
27 139.999802 0.000000 0.000000 -2.624089 -19.497471 -20.688505 139.999802
[Rope4_Seg08]
26 139.999924 0.000000 0.000119 -3.370429 -6.183755 -4.946417 139.999924
27 139.999924 0.000000 0.000119 -6.621072 -5.006768 -7.589126 139.999924
[Rope4_Seg09]
26 90.185791 0.000060 0.000060 -135.617828 2.228885 0.850567 90.185791
27 90.185791 0.000060 0.000060 -135.617828 2.228885 0.850567 90.185791
[L_rear_hand01]
26 101.696655 -8.392275 -7.654577 -36.242058 -14.765300 157.809067 102.329041
27 101.696655 -8.392275 -7.654577 -36.242058 -14.765300 157.809067 102.329041
[L_rear_hand02]
26 102.726799 -1.568258 5.773216 83.814362 23.151869 173.698151 102.900848
27 102.726799 -1.568258 5.773216 83.814354 23.151861 173.698151 102.900848
[L_rear_hand03]
26 104.552910 9.721220 -10.420293 -159.518845 -14.052428 -157.569275 105.519653
27 104.552910 9.721220 -10.420293 -159.518845 -14.052428 -157.569275 105.519653
